<svg xmlns="http://www.w3.org/2000/svg" xmlns:xlink="http://www.w3.org/1999/xlink" width="625" zoomAndPan="magnify" viewBox="0 0 468.75 408.749985" height="545" preserveAspectRatio="xMidYMid meet" version="1.0"><defs><clipPath id="56b94b3e71"><path d="M 81 69 L 418.269531 69 L 418.269531 334.671875 L 81 334.671875 Z M 81 69 " clip-rule="nonzero"/></clipPath><clipPath id="f94b2f56c4"><path d="M 50.242188 40.851562 L 401 40.851562 L 401 317 L 50.242188 317 Z M 50.242188 40.851562 " clip-rule="nonzero"/></clipPath><clipPath id="18c056a920"><path d="M 106 185 L 196 185 L 196 269 L 106 269 Z M 106 185 " clip-rule="nonzero"/></clipPath><clipPath id="52ae186abf"><path d="M 96.921875 213.113281 L 174.679688 177.683594 L 203.582031 241.117188 L 125.824219 276.546875 Z M 96.921875 213.113281 " clip-rule="nonzero"/></clipPath><clipPath id="e23ca2cca8"><path d="M 96.921875 213.113281 L 174.679688 177.683594 L 203.582031 241.117188 L 125.824219 276.546875 Z M 96.921875 213.113281 " clip-rule="nonzero"/></clipPath><clipPath id="ac9cb79f9b"><path d="M 96.921875 213.113281 L 174.679688 177.683594 L 203.582031 241.117188 L 125.824219 276.546875 Z M 96.921875 213.113281 " clip-rule="nonzero"/></clipPath><clipPath id="ab3054538b"><path d="M 118 239 L 122 239 L 122 243 L 118 243 Z M 118 239 " clip-rule="nonzero"/></clipPath><clipPath id="6b88c50c60"><path d="M 96.921875 213.113281 L 174.679688 177.683594 L 203.582031 241.117188 L 125.824219 276.546875 Z M 96.921875 213.113281 " clip-rule="nonzero"/></clipPath><clipPath id="3ce3c5f178"><path d="M 96.921875 213.113281 L 174.679688 177.683594 L 203.582031 241.117188 L 125.824219 276.546875 Z M 96.921875 213.113281 " clip-rule="nonzero"/></clipPath><clipPath id="d7c3aefb4e"><path d="M 96.921875 213.113281 L 174.679688 177.683594 L 203.582031 241.117188 L 125.824219 276.546875 Z M 96.921875 213.113281 " clip-rule="nonzero"/></clipPath><clipPath id="250d3f8821"><path d="M 175 213 L 179 213 L 179 217 L 175 217 Z M 175 213 " clip-rule="nonzero"/></clipPath><clipPath id="5717f605a6"><path d="M 96.921875 213.113281 L 174.679688 177.683594 L 203.582031 241.117188 L 125.824219 276.546875 Z M 96.921875 213.113281 " clip-rule="nonzero"/></clipPath><clipPath id="efd25de56e"><path d="M 96.921875 213.113281 L 174.679688 177.683594 L 203.582031 241.117188 L 125.824219 276.546875 Z M 96.921875 213.113281 " clip-rule="nonzero"/></clipPath><clipPath id="e87b4474be"><path d="M 96.921875 213.113281 L 174.679688 177.683594 L 203.582031 241.117188 L 125.824219 276.546875 Z M 96.921875 213.113281 " clip-rule="nonzero"/></clipPath><clipPath id="208d73d892"><path d="M 142 237 L 175 237 L 175 254 L 142 254 Z M 142 237 " clip-rule="nonzero"/></clipPath><clipPath id="046f820955"><path d="M 96.921875 213.113281 L 174.679688 177.683594 L 203.582031 241.117188 L 125.824219 276.546875 Z M 96.921875 213.113281 " clip-rule="nonzero"/></clipPath><clipPath id="6df9b6c76e"><path d="M 96.921875 213.113281 L 174.679688 177.683594 L 203.582031 241.117188 L 125.824219 276.546875 Z M 96.921875 213.113281 " clip-rule="nonzero"/></clipPath><clipPath id="13f2be1527"><path d="M 96.921875 213.113281 L 174.679688 177.683594 L 203.582031 241.117188 L 125.824219 276.546875 Z M 96.921875 213.113281 " clip-rule="nonzero"/></clipPath><clipPath id="80a2a62c24"><path d="M 172 243 L 178 243 L 178 248 L 172 248 Z M 172 243 " clip-rule="nonzero"/></clipPath><clipPath id="967f051439"><path d="M 96.921875 213.113281 L 174.679688 177.683594 L 203.582031 241.117188 L 125.824219 276.546875 Z M 96.921875 213.113281 " clip-rule="nonzero"/></clipPath><clipPath id="a7d030e5a0"><path d="M 96.921875 213.113281 L 174.679688 177.683594 L 203.582031 241.117188 L 125.824219 276.546875 Z M 96.921875 213.113281 " clip-rule="nonzero"/></clipPath><clipPath id="12c893fff0"><path d="M 96.921875 213.113281 L 174.679688 177.683594 L 203.582031 241.117188 L 125.824219 276.546875 Z M 96.921875 213.113281 " clip-rule="nonzero"/></clipPath><clipPath id="e50d0dd648"><path d="M 145 247 L 168 247 L 168 260 L 145 260 Z M 145 247 " clip-rule="nonzero"/></clipPath><clipPath id="296d96b01d"><path d="M 96.921875 213.113281 L 174.679688 177.683594 L 203.582031 241.117188 L 125.824219 276.546875 Z M 96.921875 213.113281 " clip-rule="nonzero"/></clipPath><clipPath id="f9af66d2e2"><path d="M 96.921875 213.113281 L 174.679688 177.683594 L 203.582031 241.117188 L 125.824219 276.546875 Z M 96.921875 213.113281 " clip-rule="nonzero"/></clipPath><clipPath id="a6d72df5ed"><path d="M 96.921875 213.113281 L 174.679688 177.683594 L 203.582031 241.117188 L 125.824219 276.546875 Z M 96.921875 213.113281 " clip-rule="nonzero"/></clipPath><clipPath id="c2b6265c7b"><path d="M 139 239 L 154 239 L 154 248 L 139 248 Z M 139 239 " clip-rule="nonzero"/></clipPath><clipPath id="5697a53964"><path d="M 96.921875 213.113281 L 174.679688 177.683594 L 203.582031 241.117188 L 125.824219 276.546875 Z M 96.921875 213.113281 " clip-rule="nonzero"/></clipPath><clipPath id="12464f029d"><path d="M 96.921875 213.113281 L 174.679688 177.683594 L 203.582031 241.117188 L 125.824219 276.546875 Z M 96.921875 213.113281 " clip-rule="nonzero"/></clipPath><clipPath id="d56e543ab3"><path d="M 96.921875 213.113281 L 174.679688 177.683594 L 203.582031 241.117188 L 125.824219 276.546875 Z M 96.921875 213.113281 " clip-rule="nonzero"/></clipPath><clipPath id="dcb2d9adc4"><path d="M 158 231 L 172 231 L 172 240 L 158 240 Z M 158 231 " clip-rule="nonzero"/></clipPath><clipPath id="a22f74b787"><path d="M 96.921875 213.113281 L 174.679688 177.683594 L 203.582031 241.117188 L 125.824219 276.546875 Z M 96.921875 213.113281 " clip-rule="nonzero"/></clipPath><clipPath id="1c0469697b"><path d="M 96.921875 213.113281 L 174.679688 177.683594 L 203.582031 241.117188 L 125.824219 276.546875 Z M 96.921875 213.113281 " clip-rule="nonzero"/></clipPath><clipPath id="da9d765644"><path d="M 96.921875 213.113281 L 174.679688 177.683594 L 203.582031 241.117188 L 125.824219 276.546875 Z M 96.921875 213.113281 " clip-rule="nonzero"/></clipPath><clipPath id="100df492c1"><path d="M 164 215 L 174 215 L 174 222 L 164 222 Z M 164 215 " clip-rule="nonzero"/></clipPath><clipPath id="28d03b4f4a"><path d="M 96.921875 213.113281 L 174.679688 177.683594 L 203.582031 241.117188 L 125.824219 276.546875 Z M 96.921875 213.113281 " clip-rule="nonzero"/></clipPath><clipPath id="8a7b605691"><path d="M 96.921875 213.113281 L 174.679688 177.683594 L 203.582031 241.117188 L 125.824219 276.546875 Z M 96.921875 213.113281 " clip-rule="nonzero"/></clipPath><clipPath id="3f16a1e93e"><path d="M 96.921875 213.113281 L 174.679688 177.683594 L 203.582031 241.117188 L 125.824219 276.546875 Z M 96.921875 213.113281 " clip-rule="nonzero"/></clipPath><clipPath id="5aab957740"><path d="M 304 85 L 376 85 L 376 175 L 304 175 Z M 304 85 " clip-rule="nonzero"/></clipPath><clipPath id="186579469e"><path d="M 294.746094 106.703125 L 342.8125 82.167969 L 378.933594 152.933594 L 330.867188 177.46875 Z M 294.746094 106.703125 " clip-rule="nonzero"/></clipPath><clipPath id="766b764dce"><path d="M 294.746094 106.703125 L 342.8125 82.167969 L 378.933594 152.933594 L 330.867188 177.46875 Z M 294.746094 106.703125 " clip-rule="nonzero"/></clipPath><clipPath id="64a1f31330"><path d="M 294.746094 106.703125 L 342.8125 82.167969 L 378.933594 152.933594 L 330.867188 177.46875 Z M 294.746094 106.703125 " clip-rule="nonzero"/></clipPath><clipPath id="eb8f335b65"><path d="M 294.75 106.699219 L 342.8125 82.167969 L 378.9375 152.945312 L 330.875 177.476562 Z M 294.75 106.699219 " clip-rule="nonzero"/></clipPath><clipPath id="f4c66f817e"><path d="M 294.75 106.699219 L 342.808594 82.171875 L 378.929688 152.9375 L 330.871094 177.46875 Z M 294.75 106.699219 " clip-rule="nonzero"/></clipPath><clipPath id="064cff8c51"><path d="M 319 112 L 348 112 L 348 130 L 319 130 Z M 319 112 " clip-rule="nonzero"/></clipPath><clipPath id="ec180f7af3"><path d="M 294.746094 106.703125 L 342.8125 82.167969 L 378.933594 152.933594 L 330.867188 177.46875 Z M 294.746094 106.703125 " clip-rule="nonzero"/></clipPath><clipPath id="a78077b4a1"><path d="M 294.746094 106.703125 L 342.8125 82.167969 L 378.933594 152.933594 L 330.867188 177.46875 Z M 294.746094 106.703125 " clip-rule="nonzero"/></clipPath><clipPath id="c8223c489f"><path d="M 294.746094 106.703125 L 342.8125 82.167969 L 378.933594 152.933594 L 330.867188 177.46875 Z M 294.746094 106.703125 " clip-rule="nonzero"/></clipPath><clipPath id="e645632d46"><path d="M 323 121 L 352 121 L 352 139 L 323 139 Z M 323 121 " clip-rule="nonzero"/></clipPath><clipPath id="a49f8cd40f"><path d="M 294.746094 106.703125 L 342.8125 82.167969 L 378.933594 152.933594 L 330.867188 177.46875 Z M 294.746094 106.703125 " clip-rule="nonzero"/></clipPath><clipPath id="53444f5cd5"><path d="M 294.746094 106.703125 L 342.8125 82.167969 L 378.933594 152.933594 L 330.867188 177.46875 Z M 294.746094 106.703125 " clip-rule="nonzero"/></clipPath><clipPath id="737af2f3af"><path d="M 294.746094 106.703125 L 342.8125 82.167969 L 378.933594 152.933594 L 330.867188 177.46875 Z M 294.746094 106.703125 " clip-rule="nonzero"/></clipPath><clipPath id="42aed6e888"><path d="M 327 130 L 357 130 L 357 148 L 327 148 Z M 327 130 " clip-rule="nonzero"/></clipPath><clipPath id="93e0309d63"><path d="M 294.746094 106.703125 L 342.8125 82.167969 L 378.933594 152.933594 L 330.867188 177.46875 Z M 294.746094 106.703125 " clip-rule="nonzero"/></clipPath><clipPath id="1d85568896"><path d="M 294.746094 106.703125 L 342.8125 82.167969 L 378.933594 152.933594 L 330.867188 177.46875 Z M 294.746094 106.703125 " clip-rule="nonzero"/></clipPath><clipPath id="c95ea782ca"><path d="M 294.746094 106.703125 L 342.8125 82.167969 L 378.933594 152.933594 L 330.867188 177.46875 Z M 294.746094 106.703125 " clip-rule="nonzero"/></clipPath><clipPath id="960730c636"><path d="M 331 139 L 361 139 L 361 157 L 331 157 Z M 331 139 " clip-rule="nonzero"/></clipPath><clipPath id="d4ac80a141"><path d="M 294.746094 106.703125 L 342.8125 82.167969 L 378.933594 152.933594 L 330.867188 177.46875 Z M 294.746094 106.703125 " clip-rule="nonzero"/></clipPath><clipPath id="ca41301605"><path d="M 294.746094 106.703125 L 342.8125 82.167969 L 378.933594 152.933594 L 330.867188 177.46875 Z M 294.746094 106.703125 " clip-rule="nonzero"/></clipPath><clipPath id="72cbf8fe22"><path d="M 294.746094 106.703125 L 342.8125 82.167969 L 378.933594 152.933594 L 330.867188 177.46875 Z M 294.746094 106.703125 " clip-rule="nonzero"/></clipPath><clipPath id="ad2f40eccd"><path d="M 260 138.855469 L 293 138.855469 L 293 157 L 260 157 Z M 260 138.855469 " clip-rule="nonzero"/></clipPath><clipPath id="cc2b4842a8"><path d="M 204 202 L 214 202 L 214 211.5625 L 204 211.5625 Z M 204 202 " clip-rule="nonzero"/></clipPath></defs><g clip-path="url(#56b94b3e71)"><path fill="#ffd6ae" d="M 402.9375 211.914062 C 409.378906 198.894531 413.039062 184.253906 413.128906 168.753906 C 413.449219 114.183594 369.421875 69.6875 314.792969 69.367188 C 285.164062 69.195312 258.507812 82.058594 240.257812 102.574219 C 230.277344 96.523438 218.582031 93.011719 206.058594 92.9375 C 184.421875 92.8125 165.132812 102.980469 152.832031 118.847656 C 145.472656 113.109375 136.347656 109.691406 126.449219 109.632812 C 101.859375 109.488281 81.800781 130.140625 81.652344 155.761719 C 81.570312 169.996094 87.65625 182.769531 97.296875 191.335938 C 90.523438 204.714844 86.707031 219.839844 86.707031 235.859375 C 86.707031 290.429688 130.992188 334.671875 185.617188 334.671875 C 215.25 334.671875 241.832031 321.652344 259.960938 301.03125 C 269.976562 307.023438 281.691406 310.46875 294.214844 310.46875 C 315.851562 310.46875 335.082031 300.1875 347.289062 284.25 C 354.683594 289.945312 363.824219 293.3125 373.726562 293.3125 C 398.316406 293.3125 418.253906 272.542969 418.253906 246.925781 C 418.253906 232.949219 412.320312 220.417969 402.9375 211.914062 Z M 402.9375 211.914062 " fill-opacity="1" fill-rule="nonzero"/></g><g clip-path="url(#f94b2f56c4)"><path fill="#f7931e" d="M 291.976562 44.8125 C 292.171875 44.8125 292.367188 44.8125 292.5625 44.816406 C 305.902344 44.894531 318.828125 47.578125 330.976562 52.792969 C 342.714844 57.832031 353.238281 65.011719 362.261719 74.132812 C 371.285156 83.25 378.347656 93.847656 383.257812 105.632812 C 388.335938 117.828125 390.875 130.769531 390.796875 144.097656 C 390.707031 159.230469 387.28125 173.734375 380.613281 187.207031 L 379.289062 189.890625 L 381.507812 191.902344 C 390.792969 200.316406 396.121094 212.507812 396.121094 225.34375 C 396.121094 249.734375 377.144531 269.578125 353.820312 269.578125 C 344.734375 269.578125 336.070312 266.609375 328.773438 260.988281 L 325.617188 258.558594 L 323.199219 261.71875 C 317.214844 269.53125 309.421875 276 300.664062 280.421875 C 291.480469 285.054688 281.566406 287.40625 271.203125 287.40625 C 259.359375 287.40625 247.757812 284.210938 237.648438 278.164062 L 234.8125 276.46875 L 232.628906 278.949219 C 223.433594 289.40625 212.390625 297.660156 199.800781 303.480469 C 186.777344 309.5 172.832031 312.554688 158.363281 312.554688 C 145.023438 312.554688 132.082031 309.945312 119.902344 304.800781 C 108.136719 299.828125 97.570312 292.710938 88.496094 283.644531 C 79.417969 274.578125 72.292969 264.019531 67.316406 252.265625 C 62.164062 240.101562 59.554688 227.171875 59.554688 213.847656 C 59.554688 198.203125 63.113281 183.242188 70.132812 169.371094 L 71.511719 166.648438 L 69.226562 164.621094 C 59.667969 156.128906 54.226562 143.742188 54.304688 130.640625 C 54.371094 118.835938 58.828125 107.761719 66.851562 99.457031 C 74.828125 91.199219 85.402344 86.648438 96.617188 86.652344 L 96.859375 86.652344 C 105.945312 86.703125 114.589844 89.726562 121.855469 95.386719 L 124.996094 97.835938 L 127.433594 94.691406 C 133.425781 86.960938 141.199219 80.566406 149.917969 76.199219 C 159.050781 71.625 168.902344 69.304688 179.191406 69.304688 L 179.582031 69.304688 C 191.421875 69.375 203.007812 72.636719 213.082031 78.742188 L 215.90625 80.453125 L 218.105469 77.984375 C 227.296875 67.652344 238.304688 59.503906 250.824219 53.761719 C 263.769531 47.824219 277.617188 44.8125 291.976562 44.8125 M 291.976562 40.851562 C 261.429688 40.851562 233.972656 54.179688 215.136719 75.355469 C 204.765625 69.070312 192.613281 65.417969 179.601562 65.34375 C 179.464844 65.339844 179.328125 65.339844 179.191406 65.339844 C 156.875 65.339844 136.996094 75.878906 124.296875 92.265625 C 116.648438 86.304688 107.167969 82.75 96.878906 82.691406 C 96.792969 82.6875 96.703125 82.6875 96.617188 82.6875 C 71.183594 82.6875 50.488281 104.089844 50.332031 130.621094 C 50.246094 145.414062 56.570312 158.683594 66.589844 167.585938 C 59.554688 181.488281 55.585938 197.203125 55.585938 213.847656 C 55.585938 270.550781 101.601562 316.519531 158.363281 316.519531 C 189.152344 316.519531 216.773438 302.992188 235.609375 281.566406 C 246.015625 287.792969 258.191406 291.371094 271.203125 291.371094 C 293.683594 291.371094 313.667969 280.6875 326.347656 264.128906 C 334.03125 270.046875 343.535156 273.546875 353.820312 273.546875 C 379.375 273.546875 400.085938 251.964844 400.085938 225.347656 C 400.085938 210.824219 393.921875 197.804688 384.171875 188.96875 C 390.867188 175.441406 394.671875 160.226562 394.765625 144.121094 C 395.09375 87.417969 349.347656 41.183594 292.585938 40.851562 C 292.382812 40.851562 292.179688 40.851562 291.976562 40.851562 Z M 291.976562 40.851562 " fill-opacity="1" fill-rule="nonzero"/></g><g clip-path="url(#18c056a920)"><g clip-path="url(#52ae186abf)"><g clip-path="url(#e23ca2cca8)"><g clip-path="url(#ac9cb79f9b)"><path fill="#000000" d="M 126.34375 261.578125 L 136.0625 257.152344 L 141.066406 268.128906 C 141.398438 268.859375 142.109375 269.128906 142.835938 268.796875 L 186.570312 248.871094 C 187.300781 248.535156 187.5625 247.828125 187.230469 247.097656 L 182.226562 236.117188 L 191.945312 231.6875 C 195.226562 230.195312 196.796875 226.238281 195.242188 222.820312 L 184.683594 199.644531 C 183.125 196.230469 179.230469 194.761719 175.828125 196.3125 L 170.96875 198.527344 L 167.632812 191.207031 C 167.300781 190.476562 166.59375 190.207031 165.863281 190.539062 L 162.21875 192.203125 L 159.441406 186.101562 C 159.105469 185.371094 158.398438 185.105469 157.667969 185.4375 L 113.933594 205.363281 C 113.207031 205.695312 112.941406 206.402344 113.277344 207.136719 L 116.054688 213.234375 L 112.410156 214.894531 C 111.679688 215.226562 111.417969 215.9375 111.75 216.667969 L 115.085938 223.988281 L 110.226562 226.203125 C 106.945312 227.695312 105.375 231.652344 106.929688 235.070312 L 117.492188 258.246094 C 119.046875 261.664062 123.066406 263.074219 126.34375 261.578125 Z M 116.261719 207.25 L 157.566406 188.429688 L 164.234375 203.066406 C 164.570312 203.800781 165.277344 204.066406 166.007812 203.734375 C 166.734375 203.402344 167 202.691406 166.664062 201.960938 L 163.332031 194.640625 L 165.761719 193.535156 L 171.875 206.953125 L 125.710938 227.984375 Z M 114.738281 216.78125 L 117.167969 215.675781 L 123.28125 229.09375 L 120.851562 230.199219 Z M 109.484375 233.90625 C 108.59375 231.953125 109.394531 229.527344 111.460938 228.585938 L 116.320312 226.371094 L 118.542969 231.253906 L 115.992188 232.414062 C 115.261719 232.746094 115 233.457031 115.332031 234.1875 C 115.664062 234.917969 116.375 235.1875 117.101562 234.855469 L 177.84375 207.179688 C 178.574219 206.847656 178.839844 206.136719 178.503906 205.40625 C 178.171875 204.671875 177.464844 204.40625 176.734375 204.738281 L 174.304688 205.847656 L 172.082031 200.964844 L 176.941406 198.753906 C 178.882812 197.867188 181.308594 198.675781 182.253906 200.75 L 192.8125 223.929688 C 193.703125 225.878906 192.902344 228.308594 190.835938 229.25 L 181.117188 233.675781 L 179.449219 230.015625 C 179.117188 229.285156 178.40625 229.019531 177.679688 229.351562 C 176.949219 229.683594 176.6875 230.394531 177.019531 231.125 L 184.246094 246.984375 L 142.941406 265.800781 L 132.933594 243.84375 L 174.242188 225.023438 L 174.796875 226.246094 C 175.128906 226.976562 175.839844 227.242188 176.566406 226.910156 C 177.296875 226.578125 177.558594 225.871094 177.226562 225.136719 L 176.113281 222.699219 C 175.78125 221.964844 175.074219 221.699219 174.34375 222.03125 L 130.609375 241.957031 C 129.878906 242.289062 129.617188 243 129.949219 243.730469 L 134.953125 254.710938 L 125.234375 259.140625 C 123.289062 260.023438 120.867188 259.214844 119.921875 257.140625 Z M 109.484375 233.90625 " fill-opacity="1" fill-rule="nonzero"/></g></g></g></g><g clip-path="url(#ab3054538b)"><g clip-path="url(#6b88c50c60)"><g clip-path="url(#3ce3c5f178)"><g clip-path="url(#d7c3aefb4e)"><path fill="#000000" d="M 120.558594 242.117188 C 120.921875 241.953125 121.109375 241.71875 121.242188 241.363281 C 121.375 241.011719 121.386719 240.710938 121.21875 240.34375 C 121.050781 239.980469 120.820312 239.789062 120.464844 239.65625 C 119.757812 239.390625 119.027344 239.722656 118.765625 240.433594 C 118.632812 240.785156 118.621094 241.085938 118.789062 241.453125 C 118.957031 241.816406 119.1875 242.007812 119.542969 242.140625 C 119.773438 242.328125 120.195312 242.285156 120.558594 242.117188 Z M 120.558594 242.117188 " fill-opacity="1" fill-rule="nonzero"/></g></g></g></g><g clip-path="url(#250d3f8821)"><g clip-path="url(#5717f605a6)"><g clip-path="url(#efd25de56e)"><g clip-path="url(#e87b4474be)"><path fill="#000000" d="M 177.535156 216.160156 C 177.898438 215.992188 178.085938 215.757812 178.21875 215.40625 C 178.351562 215.050781 178.304688 214.628906 178.195312 214.386719 C 178.027344 214.019531 177.796875 213.832031 177.441406 213.695312 C 176.734375 213.429688 176.003906 213.761719 175.742188 214.472656 C 175.609375 214.828125 175.597656 215.125 175.765625 215.492188 C 175.933594 215.859375 176.164062 216.046875 176.519531 216.179688 C 176.871094 216.3125 177.171875 216.324219 177.535156 216.160156 Z M 177.535156 216.160156 " fill-opacity="1" fill-rule="nonzero"/></g></g></g></g><g clip-path="url(#208d73d892)"><g clip-path="url(#046f820955)"><g clip-path="url(#6df9b6c76e)"><g clip-path="url(#13f2be1527)"><path fill="#000000" d="M 172.613281 237.550781 L 143.457031 250.835938 C 142.726562 251.167969 142.464844 251.878906 142.796875 252.609375 C 143.128906 253.339844 143.839844 253.609375 144.566406 253.277344 L 173.722656 239.992188 C 174.453125 239.660156 174.71875 238.949219 174.382812 238.21875 C 174.050781 237.484375 173.339844 237.21875 172.613281 237.550781 Z M 172.613281 237.550781 " fill-opacity="1" fill-rule="nonzero"/></g></g></g></g><g clip-path="url(#80a2a62c24)"><g clip-path="url(#967f051439)"><g clip-path="url(#a7d030e5a0)"><g clip-path="url(#12c893fff0)"><path fill="#000000" d="M 175.390625 243.652344 L 172.960938 244.757812 C 172.234375 245.089844 171.96875 245.800781 172.304688 246.53125 C 172.636719 247.261719 173.34375 247.53125 174.074219 247.199219 L 176.503906 246.089844 C 177.230469 245.757812 177.496094 245.050781 177.164062 244.316406 C 176.828125 243.585938 176.121094 243.320312 175.390625 243.652344 Z M 175.390625 243.652344 " fill-opacity="1" fill-rule="nonzero"/></g></g></g></g><g clip-path="url(#e50d0dd648)"><g clip-path="url(#296d96b01d)"><g clip-path="url(#f9af66d2e2)"><g clip-path="url(#a6d72df5ed)"><path fill="#000000" d="M 165.671875 248.078125 L 146.234375 256.933594 C 145.507812 257.269531 145.242188 257.976562 145.578125 258.707031 C 145.910156 259.441406 146.617188 259.707031 147.347656 259.375 L 166.785156 250.519531 C 167.511719 250.1875 167.777344 249.476562 167.445312 248.746094 C 167.109375 248.015625 166.402344 247.746094 165.671875 248.078125 Z M 165.671875 248.078125 " fill-opacity="1" fill-rule="nonzero"/></g></g></g></g><g clip-path="url(#c2b6265c7b)"><g clip-path="url(#5697a53964)"><g clip-path="url(#12464f029d)"><g clip-path="url(#d56e543ab3)"><path fill="#000000" d="M 141.789062 247.175781 L 152.722656 242.195312 C 153.453125 241.863281 153.714844 241.152344 153.382812 240.421875 C 153.046875 239.691406 152.339844 239.421875 151.609375 239.753906 L 140.675781 244.738281 C 139.949219 245.070312 139.683594 245.777344 140.019531 246.511719 C 140.351562 247.242188 141.058594 247.507812 141.789062 247.175781 Z M 141.789062 247.175781 " fill-opacity="1" fill-rule="nonzero"/></g></g></g></g><g clip-path="url(#dcb2d9adc4)"><g clip-path="url(#a22f74b787)"><g clip-path="url(#1c0469697b)"><g clip-path="url(#da9d765644)"><path fill="#000000" d="M 169.832031 231.453125 L 158.898438 236.433594 C 158.171875 236.765625 157.90625 237.476562 158.242188 238.207031 C 158.574219 238.9375 159.28125 239.207031 160.011719 238.875 L 170.945312 233.890625 C 171.675781 233.558594 171.9375 232.851562 171.605469 232.117188 C 171.269531 231.386719 170.5625 231.121094 169.832031 231.453125 Z M 169.832031 231.453125 " fill-opacity="1" fill-rule="nonzero"/></g></g></g></g><g clip-path="url(#100df492c1)"><g clip-path="url(#28d03b4f4a)"><g clip-path="url(#8a7b605691)"><g clip-path="url(#3f16a1e93e)"><path fill="#000000" d="M 166.601562 221.140625 L 172.675781 218.371094 C 173.40625 218.039062 173.667969 217.332031 173.335938 216.597656 C 173.003906 215.867188 172.292969 215.601562 171.566406 215.933594 L 165.492188 218.699219 C 164.761719 219.03125 164.496094 219.742188 164.832031 220.472656 C 165.164062 221.207031 165.875 221.472656 166.601562 221.140625 Z M 166.601562 221.140625 " fill-opacity="1" fill-rule="nonzero"/></g></g></g></g><g clip-path="url(#5aab957740)"><g clip-path="url(#186579469e)"><g clip-path="url(#766b764dce)"><g clip-path="url(#64a1f31330)"><g clip-path="url(#eb8f335b65)"><g clip-path="url(#f4c66f817e)"><path fill="#231815" d="M 370.085938 146.398438 C 371.320312 148.816406 370.363281 151.785156 367.953125 153.011719 L 337.371094 168.621094 C 334.960938 169.851562 331.996094 168.886719 330.765625 166.46875 L 310.261719 126.300781 L 318.109375 122.296875 C 322.925781 119.839844 324.839844 113.902344 322.371094 109.070312 L 317.941406 100.390625 L 336.308594 91.015625 C 338.71875 89.785156 341.683594 90.75 342.914062 93.167969 Z M 315.238281 105.882812 L 318.003906 111.300781 C 319.238281 113.714844 318.28125 116.683594 315.871094 117.914062 L 310.894531 120.453125 Z M 334.070312 86.628906 L 312.582031 97.597656 L 304.292969 125.398438 L 326.394531 168.699219 C 328.863281 173.535156 334.789062 175.464844 339.609375 173.007812 L 370.191406 157.398438 C 375.007812 154.9375 376.921875 149.003906 374.453125 144.167969 L 347.285156 90.9375 C 344.816406 86.105469 338.890625 84.171875 334.070312 86.628906 " fill-opacity="1" fill-rule="nonzero"/></g></g></g></g></g></g><g clip-path="url(#064cff8c51)"><g clip-path="url(#ec180f7af3)"><g clip-path="url(#a78077b4a1)"><g clip-path="url(#c8223c489f)"><path fill="#231815" d="M 344.179688 113.230469 L 320.71875 125.203125 C 319.511719 125.820312 319.035156 127.300781 319.652344 128.511719 C 320.269531 129.722656 321.75 130.203125 322.953125 129.589844 L 346.417969 117.613281 C 347.621094 117 348.101562 115.515625 347.480469 114.308594 C 346.863281 113.097656 345.386719 112.613281 344.179688 113.230469 " fill-opacity="1" fill-rule="nonzero"/></g></g></g></g><g clip-path="url(#e645632d46)"><g clip-path="url(#a49f8cd40f)"><g clip-path="url(#53444f5cd5)"><g clip-path="url(#737af2f3af)"><path fill="#231815" d="M 348.339844 122.160156 L 324.878906 134.132812 C 323.671875 134.75 323.195312 136.230469 323.8125 137.441406 C 324.429688 138.652344 325.910156 139.132812 327.113281 138.515625 L 350.578125 126.542969 C 351.785156 125.925781 352.261719 124.445312 351.644531 123.234375 C 351.023438 122.023438 349.546875 121.542969 348.339844 122.160156 " fill-opacity="1" fill-rule="nonzero"/></g></g></g></g><g clip-path="url(#42aed6e888)"><g clip-path="url(#93e0309d63)"><g clip-path="url(#1d85568896)"><g clip-path="url(#c95ea782ca)"><path fill="#231815" d="M 352.5 131.085938 L 329.039062 143.0625 C 327.832031 143.675781 327.355469 145.15625 327.972656 146.367188 C 328.589844 147.578125 330.070312 148.0625 331.277344 147.445312 L 354.738281 135.472656 C 355.945312 134.855469 356.421875 133.375 355.804688 132.164062 C 355.183594 130.953125 353.707031 130.472656 352.5 131.085938 " fill-opacity="1" fill-rule="nonzero"/></g></g></g></g><g clip-path="url(#960730c636)"><g clip-path="url(#d4ac80a141)"><g clip-path="url(#ca41301605)"><g clip-path="url(#72cbf8fe22)"><path fill="#231815" d="M 356.660156 140.015625 L 333.199219 151.992188 C 331.992188 152.605469 331.515625 154.085938 332.132812 155.296875 C 332.75 156.507812 334.230469 156.992188 335.4375 156.375 L 358.898438 144.398438 C 360.105469 143.785156 360.582031 142.304688 359.964844 141.09375 C 359.347656 139.882812 357.867188 139.398438 356.660156 140.015625 " fill-opacity="1" fill-rule="nonzero"/></g></g></g></g><g clip-path="url(#ad2f40eccd)"><path fill="#000000" d="M 292.296875 139.089844 L 273.902344 156.03125 C 273.722656 155.832031 273.480469 155.6875 273.207031 155.640625 L 261.667969 153.523438 C 260.453125 153.300781 260.28125 151.628906 261.425781 151.164062 L 291.210938 139.019531 C 291.605469 138.859375 291.988281 138.910156 292.296875 139.089844 Z M 292.296875 139.089844 " fill-opacity="1" fill-rule="nonzero"/></g><path fill="#000000" d="M 292.828125 139.527344 L 274.753906 156.808594 C 274.941406 157 275.066406 157.25 275.101562 157.527344 L 276.5 169.15625 C 276.644531 170.382812 278.304688 170.660156 278.839844 169.546875 L 292.828125 140.613281 C 293.015625 140.234375 292.988281 139.84375 292.828125 139.527344 Z M 292.828125 139.527344 " fill-opacity="1" fill-rule="nonzero"/><path fill="#000000" d="M 213.46875 203.34375 C 213.332031 203.285156 213.207031 203.1875 213.121094 203.054688 C 212.890625 202.699219 212.992188 202.222656 213.347656 201.992188 C 213.371094 201.976562 213.992188 201.574219 215.109375 200.886719 C 215.46875 200.664062 215.945312 200.773438 216.167969 201.136719 C 216.386719 201.496094 216.277344 201.96875 215.917969 202.191406 C 214.816406 202.867188 214.1875 203.273438 214.183594 203.277344 C 213.960938 203.421875 213.695312 203.4375 213.46875 203.34375 Z M 216.972656 201.179688 C 216.828125 201.117188 216.699219 201.011719 216.609375 200.867188 C 216.394531 200.503906 216.511719 200.03125 216.875 199.8125 C 217.457031 199.464844 218.050781 199.113281 218.648438 198.765625 C 219.015625 198.550781 219.484375 198.671875 219.699219 199.039062 C 219.914062 199.402344 219.789062 199.871094 219.425781 200.085938 C 218.832031 200.433594 218.242188 200.78125 217.664062 201.128906 C 217.445312 201.257812 217.191406 201.269531 216.972656 201.179688 Z M 220.515625 199.105469 C 220.367188 199.042969 220.234375 198.929688 220.148438 198.777344 C 219.9375 198.410156 220.0625 197.941406 220.433594 197.734375 C 221.027344 197.394531 221.628906 197.054688 222.226562 196.722656 C 222.597656 196.515625 223.0625 196.648438 223.269531 197.019531 C 223.476562 197.386719 223.34375 197.855469 222.972656 198.0625 C 222.382812 198.390625 221.78125 198.726562 221.195312 199.0625 C 220.980469 199.1875 220.730469 199.195312 220.515625 199.105469 Z M 224.101562 197.109375 C 223.945312 197.046875 223.808594 196.929688 223.722656 196.769531 C 223.519531 196.398438 223.660156 195.933594 224.03125 195.730469 C 224.636719 195.402344 225.246094 195.074219 225.847656 194.757812 C 226.21875 194.558594 226.683594 194.703125 226.882812 195.078125 C 227.082031 195.449219 226.9375 195.914062 226.5625 196.113281 C 225.96875 196.425781 225.363281 196.75 224.765625 197.078125 C 224.550781 197.191406 224.308594 197.195312 224.101562 197.109375 Z M 227.726562 195.195312 C 227.566406 195.128906 227.425781 195.007812 227.339844 194.839844 C 227.148438 194.460938 227.296875 194 227.671875 193.808594 C 228.285156 193.492188 228.902344 193.179688 229.507812 192.875 C 229.890625 192.6875 230.351562 192.84375 230.539062 193.21875 C 230.726562 193.597656 230.574219 194.058594 230.195312 194.25 C 229.59375 194.546875 228.980469 194.855469 228.375 195.167969 C 228.164062 195.277344 227.929688 195.28125 227.726562 195.195312 Z M 231.398438 193.367188 C 231.230469 193.296875 231.085938 193.167969 231 192.992188 C 230.816406 192.613281 230.976562 192.152344 231.359375 191.96875 C 231.984375 191.667969 232.609375 191.371094 233.222656 191.089844 C 233.605469 190.910156 234.0625 191.074219 234.242188 191.460938 C 234.417969 191.84375 234.253906 192.300781 233.867188 192.476562 C 233.261719 192.757812 232.644531 193.054688 232.027344 193.351562 C 231.820312 193.449219 231.59375 193.449219 231.398438 193.367188 Z M 253.785156 201.464844 C 253.4375 201.320312 253.105469 201.15625 252.789062 200.972656 C 252.421875 200.761719 252.296875 200.292969 252.511719 199.925781 C 252.722656 199.558594 253.191406 199.433594 253.558594 199.648438 C 253.816406 199.796875 254.089844 199.929688 254.375 200.050781 C 254.660156 200.167969 254.957031 200.273438 255.265625 200.359375 C 255.675781 200.476562 255.910156 200.898438 255.796875 201.304688 C 255.679688 201.714844 255.253906 201.949219 254.847656 201.835938 C 254.480469 201.730469 254.125 201.605469 253.785156 201.464844 Z M 256.773438 202.160156 C 256.476562 202.035156 256.277344 201.730469 256.304688 201.390625 C 256.335938 200.96875 256.707031 200.652344 257.128906 200.6875 C 257.75 200.738281 258.394531 200.734375 259.050781 200.679688 C 259.472656 200.640625 259.84375 200.953125 259.878906 201.375 C 259.914062 201.796875 259.601562 202.167969 259.179688 202.207031 C 258.441406 202.265625 257.710938 202.269531 257.007812 202.214844 C 256.925781 202.207031 256.847656 202.1875 256.773438 202.160156 Z M 251.285156 199.75 C 251.1875 199.707031 251.09375 199.644531 251.015625 199.5625 C 250.503906 199.007812 250.082031 198.371094 249.757812 197.667969 C 249.582031 197.285156 249.75 196.832031 250.132812 196.652344 C 250.519531 196.476562 250.972656 196.644531 251.152344 197.027344 C 251.40625 197.582031 251.742188 198.085938 252.144531 198.523438 C 252.433594 198.835938 252.414062 199.320312 252.101562 199.605469 C 251.875 199.816406 251.554688 199.859375 251.285156 199.75 Z M 235.113281 191.640625 C 234.941406 191.566406 234.792969 191.429688 234.710938 191.246094 C 234.535156 190.859375 234.710938 190.40625 235.097656 190.234375 C 235.730469 189.949219 236.363281 189.671875 236.984375 189.40625 C 237.375 189.242188 237.824219 189.421875 237.992188 189.8125 C 238.15625 190.199219 237.976562 190.652344 237.585938 190.816406 C 236.976562 191.078125 236.347656 191.351562 235.722656 191.632812 C 235.523438 191.722656 235.304688 191.71875 235.113281 191.640625 Z M 260.839844 201.824219 C 260.621094 201.734375 260.445312 201.542969 260.386719 201.292969 C 260.289062 200.882812 260.542969 200.46875 260.957031 200.371094 C 261.585938 200.222656 262.207031 200.027344 262.800781 199.792969 C 263.195312 199.636719 263.640625 199.828125 263.796875 200.21875 C 263.953125 200.613281 263.761719 201.058594 263.367188 201.214844 C 262.707031 201.480469 262.011719 201.695312 261.3125 201.863281 C 261.148438 201.902344 260.984375 201.886719 260.839844 201.824219 Z M 249.566406 196.109375 C 249.332031 196.011719 249.152344 195.796875 249.105469 195.527344 C 248.992188 194.84375 248.945312 194.109375 248.96875 193.34375 C 248.980469 192.921875 249.332031 192.585938 249.757812 192.601562 C 250.179688 192.613281 250.515625 192.964844 250.5 193.390625 C 250.480469 194.054688 250.519531 194.6875 250.621094 195.273438 C 250.691406 195.691406 250.410156 196.085938 249.992188 196.15625 C 249.84375 196.179688 249.699219 196.164062 249.566406 196.109375 Z M 238.886719 190.03125 C 238.703125 189.953125 238.550781 189.808594 238.46875 189.613281 C 238.308594 189.21875 238.5 188.773438 238.890625 188.613281 C 239.539062 188.351562 240.183594 188.097656 240.8125 187.855469 C 241.207031 187.703125 241.652344 187.902344 241.804688 188.296875 C 241.957031 188.691406 241.757812 189.136719 241.363281 189.285156 C 240.742188 189.523438 240.105469 189.773438 239.46875 190.03125 C 239.273438 190.113281 239.066406 190.105469 238.886719 190.03125 Z M 264.625 200.308594 C 264.476562 200.25 264.347656 200.140625 264.261719 199.996094 C 264.042969 199.632812 264.164062 199.160156 264.527344 198.945312 C 265.089844 198.609375 265.605469 198.234375 266.058594 197.828125 C 266.375 197.546875 266.859375 197.574219 267.144531 197.890625 C 267.425781 198.207031 267.398438 198.691406 267.082031 198.972656 C 266.554688 199.441406 265.960938 199.875 265.3125 200.261719 C 265.097656 200.390625 264.839844 200.398438 264.625 200.308594 Z M 249.652344 192.042969 C 249.332031 191.910156 249.132812 191.566406 249.195312 191.203125 C 249.3125 190.542969 249.472656 189.847656 249.679688 189.136719 C 249.796875 188.730469 250.21875 188.496094 250.628906 188.613281 C 251.035156 188.730469 251.269531 189.15625 251.152344 189.5625 C 250.964844 190.21875 250.8125 190.859375 250.707031 191.46875 C 250.632812 191.886719 250.234375 192.164062 249.816406 192.09375 C 249.761719 192.082031 249.707031 192.066406 249.652344 192.042969 Z M 242.714844 188.566406 C 242.519531 188.488281 242.363281 188.328125 242.285156 188.117188 C 242.144531 187.71875 242.351562 187.28125 242.75 187.136719 C 243.410156 186.902344 244.070312 186.675781 244.707031 186.46875 C 245.109375 186.335938 245.542969 186.554688 245.675781 186.957031 C 245.808594 187.355469 245.589844 187.789062 245.1875 187.921875 C 244.5625 188.128906 243.914062 188.351562 243.265625 188.582031 C 243.078125 188.648438 242.882812 188.636719 242.714844 188.566406 Z M 267.628906 197.582031 C 267.582031 197.5625 267.535156 197.539062 267.492188 197.507812 C 267.144531 197.269531 267.050781 196.792969 267.292969 196.445312 C 267.527344 196.09375 267.726562 195.730469 267.882812 195.363281 C 267.957031 195.1875 268.019531 195.003906 268.074219 194.824219 C 268.195312 194.417969 268.625 194.1875 269.03125 194.308594 C 269.4375 194.429688 269.667969 194.855469 269.546875 195.261719 C 269.476562 195.496094 269.390625 195.726562 269.296875 195.953125 C 269.105469 196.417969 268.855469 196.875 268.558594 197.308594 C 268.351562 197.613281 267.960938 197.71875 267.628906 197.582031 Z M 246.609375 187.289062 C 246.402344 187.203125 246.234375 187.03125 246.167969 186.800781 C 246.046875 186.394531 246.277344 185.96875 246.683594 185.847656 C 247.363281 185.648438 248.035156 185.460938 248.683594 185.292969 C 249.09375 185.183594 249.511719 185.429688 249.621094 185.839844 C 249.726562 186.25 249.480469 186.667969 249.070312 186.773438 C 248.4375 186.9375 247.78125 187.121094 247.121094 187.316406 C 246.945312 187.371094 246.765625 187.355469 246.609375 187.289062 Z M 250.765625 188.121094 C 250.386719 187.960938 250.199219 187.53125 250.34375 187.140625 C 250.449219 186.863281 250.5625 186.582031 250.679688 186.296875 C 250.40625 186.226562 250.183594 186.011719 250.121094 185.71875 C 250.03125 185.304688 250.292969 184.898438 250.707031 184.808594 C 251.347656 184.667969 251.976562 184.542969 252.589844 184.4375 C 252.519531 184.425781 252.453125 184.402344 252.386719 184.367188 C 252.007812 184.175781 251.859375 183.710938 252.054688 183.335938 C 252.359375 182.742188 252.695312 182.128906 253.046875 181.511719 C 253.253906 181.144531 253.722656 181.015625 254.09375 181.226562 C 254.460938 181.433594 254.589844 181.902344 254.378906 182.269531 C 254.039062 182.867188 253.714844 183.460938 253.417969 184.039062 C 253.328125 184.21875 253.171875 184.34375 252.996094 184.40625 C 253.316406 184.457031 253.582031 184.703125 253.636719 185.039062 C 253.707031 185.457031 253.425781 185.851562 253.007812 185.921875 C 252.828125 185.953125 252.648438 185.984375 252.46875 186.015625 C 252.363281 186.253906 252.261719 186.488281 252.164062 186.71875 C 252.027344 187.042969 251.898438 187.367188 251.78125 187.683594 C 251.632812 188.078125 251.1875 188.277344 250.792969 188.128906 C 250.78125 188.125 250.773438 188.125 250.765625 188.121094 Z M 268.761719 193.730469 C 268.496094 193.621094 268.304688 193.367188 268.289062 193.0625 C 268.261719 192.480469 268.136719 191.886719 267.925781 191.285156 C 267.785156 190.886719 267.992188 190.449219 268.390625 190.308594 C 268.789062 190.164062 269.230469 190.375 269.371094 190.773438 C 269.636719 191.511719 269.785156 192.257812 269.820312 192.988281 C 269.84375 193.410156 269.515625 193.769531 269.09375 193.789062 C 268.972656 193.796875 268.863281 193.773438 268.761719 193.730469 Z M 254.613281 185.589844 C 254.363281 185.488281 254.175781 185.253906 254.144531 184.964844 C 254.101562 184.546875 254.40625 184.167969 254.824219 184.121094 C 255.546875 184.042969 256.253906 183.992188 256.921875 183.96875 C 257.347656 183.953125 257.703125 184.285156 257.71875 184.707031 C 257.730469 185.132812 257.398438 185.484375 256.976562 185.5 C 256.34375 185.523438 255.675781 185.570312 254.992188 185.644531 C 254.859375 185.660156 254.730469 185.640625 254.613281 185.589844 Z M 267.449219 189.90625 C 267.308594 189.847656 267.1875 189.75 267.097656 189.609375 C 266.761719 189.078125 266.367188 188.589844 265.925781 188.164062 C 265.625 187.867188 265.617188 187.382812 265.914062 187.078125 C 266.210938 186.777344 266.695312 186.769531 267 187.066406 C 267.523438 187.578125 267.992188 188.15625 268.394531 188.789062 C 268.621094 189.144531 268.515625 189.621094 268.15625 189.847656 C 267.9375 189.988281 267.671875 190 267.449219 189.90625 Z M 258.699219 185.460938 C 258.40625 185.339844 258.210938 185.042969 258.230469 184.710938 C 258.253906 184.289062 258.617188 183.964844 259.039062 183.988281 C 259.777344 184.035156 260.492188 184.117188 261.160156 184.238281 C 261.578125 184.316406 261.851562 184.714844 261.777344 185.128906 C 261.703125 185.546875 261.300781 185.824219 260.882812 185.746094 C 260.277344 185.636719 259.625 185.558594 258.949219 185.519531 C 258.859375 185.515625 258.777344 185.496094 258.699219 185.460938 Z M 264.550781 187.078125 C 264.515625 187.066406 264.484375 187.046875 264.449219 187.027344 C 264.082031 186.808594 263.6875 186.609375 263.269531 186.4375 C 263.097656 186.363281 262.917969 186.296875 262.738281 186.230469 C 262.339844 186.089844 262.128906 185.652344 262.269531 185.253906 C 262.410156 184.855469 262.851562 184.644531 263.25 184.785156 C 263.457031 184.859375 263.664062 184.9375 263.863281 185.019531 C 264.34375 185.222656 264.808594 185.457031 265.238281 185.714844 C 265.601562 185.933594 265.722656 186.402344 265.503906 186.765625 C 265.304688 187.097656 264.894531 187.222656 264.550781 187.078125 Z M 254.460938 180.839844 C 254.425781 180.824219 254.390625 180.808594 254.355469 180.785156 C 253.992188 180.5625 253.882812 180.089844 254.105469 179.730469 C 254.457031 179.164062 254.832031 178.578125 255.21875 177.988281 C 255.453125 177.636719 255.929688 177.539062 256.28125 177.773438 C 256.636719 178.007812 256.734375 178.480469 256.5 178.835938 C 256.121094 179.410156 255.753906 179.980469 255.410156 180.535156 C 255.210938 180.863281 254.804688 180.984375 254.460938 180.839844 Z M 256.714844 177.429688 C 256.664062 177.410156 256.617188 177.382812 256.570312 177.351562 C 256.222656 177.109375 256.136719 176.628906 256.382812 176.285156 C 256.765625 175.734375 257.171875 175.171875 257.585938 174.609375 C 257.835938 174.269531 258.316406 174.195312 258.65625 174.445312 C 259 174.695312 259.070312 175.175781 258.820312 175.515625 C 258.414062 176.070312 258.015625 176.621094 257.636719 177.164062 C 257.429688 177.460938 257.039062 177.566406 256.714844 177.429688 Z M 259.136719 174.136719 C 259.074219 174.113281 259.019531 174.078125 258.964844 174.035156 C 258.628906 173.777344 258.5625 173.296875 258.820312 172.960938 C 259.230469 172.429688 259.65625 171.886719 260.089844 171.339844 C 260.355469 171.011719 260.839844 170.957031 261.167969 171.21875 C 261.5 171.484375 261.554688 171.964844 261.292969 172.296875 C 260.863281 172.832031 260.441406 173.371094 260.039062 173.894531 C 259.824219 174.175781 259.449219 174.265625 259.136719 174.136719 Z M 261.683594 170.941406 C 261.617188 170.910156 261.550781 170.871094 261.492188 170.824219 C 261.164062 170.554688 261.117188 170.070312 261.386719 169.746094 C 261.816406 169.226562 262.261719 168.695312 262.710938 168.167969 C 262.984375 167.847656 263.46875 167.808594 263.792969 168.082031 C 264.113281 168.355469 264.152344 168.839844 263.878906 169.164062 C 263.433594 169.683594 262.996094 170.207031 262.574219 170.71875 C 262.351562 170.988281 261.988281 171.066406 261.683594 170.941406 Z M 264.335938 167.828125 C 264.261719 167.796875 264.191406 167.75 264.125 167.695312 C 263.808594 167.417969 263.773438 166.933594 264.054688 166.613281 C 264.496094 166.109375 264.957031 165.59375 265.417969 165.078125 C 265.699219 164.761719 266.1875 164.738281 266.5 165.019531 C 266.816406 165.300781 266.84375 165.785156 266.558594 166.101562 C 266.101562 166.613281 265.648438 167.125 265.210938 167.625 C 264.984375 167.878906 264.632812 167.949219 264.335938 167.828125 Z M 267.070312 164.785156 C 266.988281 164.75 266.914062 164.703125 266.84375 164.640625 C 266.535156 164.355469 266.511719 163.871094 266.800781 163.558594 C 267.257812 163.0625 267.726562 162.558594 268.199219 162.054688 C 268.488281 161.746094 268.972656 161.730469 269.285156 162.023438 C 269.59375 162.3125 269.605469 162.796875 269.316406 163.105469 C 268.847656 163.601562 268.382812 164.105469 267.929688 164.597656 C 267.703125 164.839844 267.359375 164.90625 267.070312 164.785156 Z M 269.871094 161.804688 C 269.785156 161.769531 269.707031 161.71875 269.636719 161.652344 C 269.328125 161.359375 269.320312 160.875 269.613281 160.570312 C 270.078125 160.082031 270.558594 159.585938 271.039062 159.09375 C 271.335938 158.792969 271.824219 158.789062 272.125 159.082031 C 272.429688 159.378906 272.433594 159.863281 272.136719 160.167969 C 271.660156 160.65625 271.183594 161.148438 270.71875 161.628906 C 270.496094 161.863281 270.15625 161.925781 269.871094 161.804688 Z M 269.871094 161.804688 " fill-opacity="1" fill-rule="nonzero"/><g clip-path="url(#cc2b4842a8)"><path fill="#000000" d="M 208.273438 203.089844 L 204.226562 206.558594 C 203.820312 206.90625 204.066406 207.574219 204.605469 207.578125 L 207.046875 207.585938 C 207.398438 207.585938 207.667969 207.898438 207.617188 208.25 L 207.261719 210.683594 C 207.183594 211.214844 207.804688 211.558594 208.214844 211.207031 L 212.25 207.75 C 212.347656 207.664062 212.414062 207.550781 212.4375 207.425781 L 213.332031 203.046875 C 213.398438 202.730469 213.132812 202.441406 212.8125 202.480469 L 208.585938 202.953125 C 208.46875 202.96875 208.359375 203.015625 208.273438 203.089844 Z M 208.273438 203.089844 " fill-opacity="1" fill-rule="nonzero"/></g></svg>